<?xml version="1.0" encoding="UTF-8" standalone="no"?>
<!-- Created with Inkscape (http://www.inkscape.org/) -->

<svg
   xmlns:dc="http://purl.org/dc/elements/1.1/"
   xmlns:cc="http://creativecommons.org/ns#"
   xmlns:rdf="http://www.w3.org/1999/02/22-rdf-syntax-ns#"
   xmlns:svg="http://www.w3.org/2000/svg"
   xmlns="http://www.w3.org/2000/svg"
   xmlns:sodipodi="http://sodipodi.sourceforge.net/DTD/sodipodi-0.dtd"
   xmlns:inkscape="http://www.inkscape.org/namespaces/inkscape"
   id="svg2"
   height="48.8mm"
   width="185.3mm"
   version="1.1"
   viewBox="0 0 656.57517 172.91329"
   inkscape:version="0.91 r13725"
   sodipodi:docname="The Trump Organization logo.svg">
  <defs
     id="defs20" />
  <sodipodi:namedview
     pagecolor="#ffffff"
     bordercolor="#666666"
     borderopacity="1"
     objecttolerance="10"
     gridtolerance="10"
     guidetolerance="10"
     inkscape:pageopacity="0"
     inkscape:pageshadow="2"
     inkscape:window-width="942"
     inkscape:window-height="508"
     id="namedview18"
     showgrid="false"
     inkscape:zoom="2.2053846"
     inkscape:cx="149.48423"
     inkscape:cy="93.557803"
     inkscape:window-x="0"
     inkscape:window-y="0"
     inkscape:window-maximized="0"
     inkscape:current-layer="svg2" />
  <metadata
     id="metadata7">
    <rdf:RDF>
      <cc:Work
         rdf:about="">
        <dc:format>image/svg+xml</dc:format>
        <dc:type
           rdf:resource="http://purl.org/dc/dcmitype/StillImage" />
        <dc:title />
      </cc:Work>
    </rdf:RDF>
  </metadata>
  <g
     id="layer2"
     transform="translate(0 -879.45)">
    <g
       transform="matrix(1.5682 0 0 1.5682 -147.09 627.62)"
       style="font-size:40px;line-height:125%;font-family:sans-serif;letter-spacing:0px;word-spacing:0px;fill:#000000"
       id="flowRoot3336">
      <path
         d="m 103.51709,212.80347 25.48828,0 0,-2.63672 -4.50439,-0.36621 q -1.94092,-0.14649 -2.45362,-1.13526 -0.62256,-0.80566 -0.62256,-2.89306 l 0,-41.71143 3.51563,0 q 5.49316,0 7.50732,2.16065 2.05079,2.41699 3.22266,8.1665 l 2.63672,0 0,-13.47656 -44.091798,0 0,13.47656 2.600098,0 q 1.281738,-5.74951 3.33252,-8.1665 2.01416,-2.16065 7.39746,-2.16065 l 3.55225,0 0,41.71143 q 0,2.0874 -0.47608,2.89306 -0.58594,0.98877 -2.6001,1.13526 l -4.50439,0.36621 0,2.63672 z"
         style="font-weight:bold;font-size:75px;font-family:utopia;letter-spacing:37.26200104px"
         id="path3349" />
      <path
         d="m 195.89384,188.74341 4.06494,0 q 6.0791,-0.14649 7.65381,6.0791 0.43945,1.86768 1.02539,4.94385 0.54931,3.00293 1.28174,5.89599 1.79443,7.2876 11.24267,7.14112 l 5.78613,0 0,-2.63672 q -2.23388,-0.21973 -3.6621,-1.50147 -3.07618,-2.74658 -3.77198,-8.53271 -0.29297,-2.41699 -0.80566,-4.5044 -0.54932,-2.01416 -1.64795,-3.73535 -1.06201,-1.72119 -2.92969,-3.00293 -1.86767,-1.28173 -4.79736,-1.97754 l 0,-0.14648 q 5.60303,-0.95215 9.08203,-4.24805 3.36914,-3.36914 3.44238,-8.49609 0.0732,-5.60303 -3.77197,-9.375 -3.95508,-3.66211 -13.95264,-3.73535 l -24.79248,0 0,2.63672 q 4.24805,0.0732 5.31006,0.80566 0.98877,0.76904 0.91553,3.66211 l 0,37.64648 q 0.0732,2.78321 -0.91553,3.62549 -1.06201,0.73242 -5.31006,0.87891 l 0,2.63672 22.77832,0 0,-2.63672 q -4.10156,-0.14649 -5.23681,-0.87891 -1.06202,-0.84228 -0.98877,-3.62549 l 0,-16.91894 z m 0,-3.14941 0,-18.31055 q -0.0733,-1.79444 0.91552,-2.56348 0.95215,-0.65918 4.10157,-0.65918 2.05078,0 3.84521,0.43946 1.86768,0.54931 3.22266,1.72119 2.85644,2.41699 2.92969,8.42285 0.14648,10.80322 -10.51026,10.94971 l -4.50439,0 z"
         style="font-weight:bold;font-size:75px;font-family:utopia;letter-spacing:37.26200104px"
         id="path3351" />
      <path
         d="m 313.20955,168.01587 q -0.0732,-2.89307 0.98877,-3.66211 1.13525,-0.73242 5.23681,-0.80566 l 0,-2.63672 -22.77832,0 0,2.63672 q 4.28467,0.0732 5.31006,0.80566 0.98877,0.76904 0.91553,3.66211 l 0,27.09961 q 0,2.85644 -0.36621,5.60303 -0.47607,2.70996 -1.64795,5.05371 -1.2085,2.23388 -3.33252,3.58886 -2.23389,1.42823 -5.60303,1.42823 -3.22265,0 -5.41992,-1.42823 -2.0874,-1.35498 -3.36914,-3.58886 -1.2085,-2.27051 -1.64795,-5.12696 -0.51269,-2.67334 -0.51269,-5.52978 l 0,-27.09961 q -0.0732,-2.89307 0.95214,-3.66211 1.13526,-0.73242 5.27344,-0.80566 l 0,-2.63672 -22.81494,0 0,2.63672 q 4.28467,0.0732 5.34668,0.80566 0.95215,0.76904 0.87891,3.66211 l 0,26.95313 q 0,6.88476 2.2705,11.09619 2.52686,4.32129 7.47071,6.0791 4.90722,1.79443 11.57226,1.79443 6.51856,0 11.38916,-1.79443 4.87061,-1.9043 7.50733,-6.15235 2.23388,-4.21142 2.38037,-11.02294 l 0,-26.95313 z"
         style="font-weight:bold;font-size:75px;font-family:utopia;letter-spacing:37.26200104px"
         id="path3353" />
      <path
         d="m 360.98181,212.80347 17.94434,0 0,-2.63672 -3.9917,-0.36621 q -3.00293,-0.21973 -3.22266,-3.73535 -0.43945,-3.47901 -0.43945,-10.80323 l 0,-27.17285 0.21973,0 17.24853,43.50586 3.66211,0 17.02881,-43.50586 0.21973,0 0,37.57324 q 0.0732,2.78321 -0.87891,3.62549 -1.06201,0.73242 -5.34668,0.87891 l 0,2.63672 22.44873,0 0,-2.63672 q -4.13818,-0.14649 -5.27344,-0.87891 -1.02539,-0.84228 -0.95215,-3.62549 l 0,-37.64648 q -0.0732,-2.89307 0.95215,-3.66211 1.13526,-0.73242 5.27344,-0.80566 l 0,-2.63672 -17.61475,0 -14.50195,36.14502 -0.14648,0 -14.53858,-36.14502 -18.2373,0 0,2.63672 q 4.28467,0.0732 5.34668,0.80566 0.95215,0.76904 0.8789,3.66211 l 0,27.24609 q 0,7.50733 -0.36621,10.80323 -0.36621,3.58886 -3.00293,3.80859 l -2.70996,0.29297 0,2.63672 z"
         style="font-weight:bold;font-size:75px;font-family:utopia;letter-spacing:37.26200104px"
         id="path3355" />
      <path
         d="m 484.77945,166.844 q -0.0732,-1.57471 0.91553,-2.27051 0.8789,-0.5127 3.95507,-0.5127 4.57764,0 7.50733,2.85645 2.85644,3.00293 2.92969,9.375 0,5.3833 -2.63672,8.82568 -2.67334,3.62549 -8.16651,3.69873 -2.63671,0.0732 -3.58886,-0.54932 -0.98877,-0.58593 -0.91553,-2.60009 l 0,-18.82324 z m -16.55273,45.95947 23.98681,0 0,-2.63672 q -5.01709,-0.14649 -6.29883,-0.87891 -1.20849,-0.84228 -1.13525,-3.62549 l 0,-13.69628 4.28467,0 q 4.43115,0 7.94677,-0.76905 3.51563,-0.65918 6.00586,-1.94092 3.36914,-1.72119 5.67627,-4.94384 2.27051,-3.22266 2.34375,-8.23975 -0.21972,-9.00879 -6.15234,-12.1582 -5.71289,-3.07617 -14.46533,-3.00293 l -22.19238,0 0,2.63672 q 4.24804,0.0732 5.31005,0.80566 0.98877,0.76904 0.91553,3.66211 l 0,37.64648 q 0.0732,2.78321 -0.91553,3.62549 -1.06201,0.73242 -5.31005,0.87891 l 0,2.63672 z"
         style="font-weight:bold;font-size:75px;font-family:utopia;letter-spacing:37.26200104px"
         id="path3357" />
    </g>
    <path
       id="path3414"
       d="m0.45578 986.47h655.77v-1.7291h-655.79z" />
    <path
       id="path3416"
       d="m0.40517 1052.3h655.77v-1.7291h-655.79z" />
    <g
       transform="matrix(1.1684 0 0 1.1684 -52.59 493.88)"
       style="font-size:40px;line-height:125%;font-family:sans-serif;letter-spacing:0px;word-spacing:0px;fill:#000000"
       id="flowRoot3418">
      <path
         d="m 60.9375,445.64072 -1.135254,0 q -0.842285,-2.57568 -1.037598,-2.91748 -0.183105,-0.3418 -0.524902,-0.47607 -0.341797,-0.14649 -2.172851,-0.14649 l -1.184083,0 0,11.40137 q 0,2.12402 0.146485,2.56347 0.07324,0.23194 0.354004,0.37842 0.292969,0.13428 2.221679,0.47608 l 0,0.90332 q -3.723144,-0.13428 -4.785156,-0.13428 -1.440429,0 -4.406738,0.13428 l 0,-0.90332 q 1.953125,-0.3418 2.319336,-0.53711 0.24414,-0.13428 0.32959,-0.43946 0.09766,-0.31738 0.09766,-2.56347 l 0,-11.2793 -2.050781,0 q -1.037598,0 -1.379395,0.1709 -0.32959,0.1709 -0.549316,0.62256 -0.32959,0.68359 -0.927735,2.74658 l -1.110839,0 q 0.207519,-1.79443 0.256347,-2.47803 0.04883,-0.68359 0.109863,-2.66113 4.833985,0.13428 9.448243,0.10986 3.90625,-0.0366 5.615234,-0.10986 0.01221,2.35596 0.366211,5.13916 z"
         style="font-weight:bold;font-size:25px;font-family:'Calisto MT';letter-spacing:9.21850014px"
         id="path3360" />
      <path
         d="m 70.839594,441.40488 0,-0.90332 q 2.209473,0.13428 4.492187,0.13428 2.380371,0 4.711914,-0.13428 l 0,0.90332 q -1.855468,0.31738 -2.185058,0.46387 -0.317383,0.13427 -0.45166,0.42724 -0.122071,0.29297 -0.122071,1.78223 l 0.01221,0.84229 -0.01221,3.1372 q 1.733399,0.061 3.710938,0.061 1.782226,0 3.112793,-0.061 l -0.02441,-4.33349 q 0,-1.15967 -0.134278,-1.45264 -0.134277,-0.29297 -0.512695,-0.43945 -0.292969,-0.12207 -2.087402,-0.42725 l 0,-0.90332 q 2.355957,0.13428 4.333496,0.13428 1.855469,0 4.870605,-0.13428 l 0,0.90332 -1.940918,0.41504 q -0.317382,0.0854 -0.45166,0.20752 -0.12207,0.12207 -0.183105,0.30517 -0.122071,0.40284 -0.146485,2.52686 -0.02441,3.36914 -0.02441,4.39453 0,4.17481 0.06104,6.15235 0.02441,0.65917 0.305176,0.92773 0.280762,0.25635 1.904297,0.51269 l 0.476074,0.0733 0,0.90332 q -2.575683,-0.13428 -4.589843,-0.13428 -1.989746,0 -4.614258,0.13428 l 0,-0.90332 2.050781,-0.41504 q 0.366211,-0.12207 0.512695,-0.36621 0.158692,-0.25635 0.158692,-1.13526 l 0.03662,-5.3833 -3.356934,-0.0488 q -0.231933,0 -3.466797,0.0488 0.01221,4.99268 0.07324,5.96924 0.03662,0.5249 0.305175,0.76904 0.280762,0.24414 1.855469,0.47608 0.170899,0.0244 0.524902,0.0855 l 0,0.90332 q -2.70996,-0.13428 -4.858398,-0.13428 -2.209473,0 -4.345703,0.13428 l 0,-0.90332 q 1.68457,-0.32959 2.038574,-0.45166 0.354004,-0.12207 0.500488,-0.37842 0.158692,-0.26856 0.158692,-1.15967 l 0.04883,-4.76074 q 0,-3.72315 -0.03662,-6.35986 -0.01221,-1.29395 -0.20752,-1.62354 -0.109863,-0.20752 -0.390625,-0.32959 -0.268554,-0.12207 -2.111816,-0.45166 z"
         style="font-weight:bold;font-size:25px;font-family:'Calisto MT';letter-spacing:9.21850014px"
         id="path3362" />
      <path
         d="m 100.12645,441.40488 0,-0.90332 q 2.9419,0.14648 6.39649,0.14648 4.0039,0 8.25195,-0.14648 0.0366,2.56348 0.30518,4.45557 l -1.0376,0 q -0.14649,-0.39063 -0.20752,-0.59815 -0.59815,-1.7456 -0.93994,-2.02637 -0.3418,-0.28076 -1.53809,-0.28076 l -4.66308,0 q -0.0977,2.06299 -0.12207,5.99366 l 2.12402,0.0244 q 1.66016,0 2.03857,-0.31738 0.39063,-0.32959 0.81787,-2.18506 l 1.01319,0 q -0.13428,1.79443 -0.13428,3.16162 0,1.30615 0.13428,3.25928 l -1.01319,0 q -0.34179,-1.97754 -0.65918,-2.27051 -0.31738,-0.29297 -1.9165,-0.29297 l -2.39258,0 0,6.82373 4.8584,0 q 0.80567,0 1.07422,-0.0977 0.42725,-0.15869 0.78125,-0.56152 0.74463,-0.81787 1.74561,-2.58789 l 1.07421,0 q -0.708,2.00195 -1.52587,4.82178 -4.1626,-0.13428 -8.70362,-0.13428 -2.06299,0 -5.76172,0.13428 l 0,-0.90332 q 2.02637,-0.36621 2.31934,-0.58594 0.40283,-0.28076 0.40283,-1.41602 l 0,-0.41504 0.0244,-4.83398 0,-3.90625 -0.0122,-1.80664 q 0,-1.30615 -0.13428,-1.62354 -0.13428,-0.31738 -0.5249,-0.50048 -0.37842,-0.18311 -2.0752,-0.42725 z"
         style="letter-spacing:8.81060028px"
         id="path3364" />
      <path
         d="m 157.05429,445.64072 -1.13525,0 q -0.84229,-2.57568 -1.0376,-2.91748 -0.18311,-0.3418 -0.5249,-0.47607 -0.3418,-0.14649 -2.17285,-0.14649 l -1.18409,0 0,11.40137 q 0,2.12402 0.14649,2.56347 0.0732,0.23194 0.354,0.37842 0.29297,0.13428 2.22168,0.47608 l 0,0.90332 q -3.72314,-0.13428 -4.78516,-0.13428 -1.44042,0 -4.40673,0.13428 l 0,-0.90332 q 1.95312,-0.3418 2.31933,-0.53711 0.24414,-0.13428 0.32959,-0.43946 0.0977,-0.31738 0.0977,-2.56347 l 0,-11.2793 -2.05078,0 q -1.0376,0 -1.3794,0.1709 -0.32959,0.1709 -0.54931,0.62256 -0.32959,0.68359 -0.92774,2.74658 l -1.11084,0 q 0.20752,-1.79443 0.25635,-2.47803 0.0488,-0.68359 0.10986,-2.66113 4.83399,0.13428 9.44825,0.10986 3.90625,-0.0366 5.61523,-0.10986 0.0122,2.35596 0.36621,5.13916 z"
         style="font-weight:bold;font-size:25px;font-family:'Calisto MT';letter-spacing:9.21850014px"
         id="path3366" />
      <path
         d="m 166.90756,441.40488 0,-0.90332 q 4.12598,0.13428 4.87061,0.13428 0.79345,0 2.29492,-0.0366 1.50146,-0.0488 2.20947,-0.0488 1.81885,0 2.83203,0.46387 1.01319,0.46386 1.62354,1.47705 0.62256,1.01318 0.62256,2.2583 0,1.06201 -0.43946,2.05078 -0.43945,0.97656 -1.17187,1.66015 -0.47608,0.45166 -1.52588,0.97657 0.83008,1.42822 2.4292,4.04052 1.17187,1.91651 1.52588,2.29493 0.36621,0.37841 0.78125,0.58593 0.63476,0.29297 2.31933,0.56153 l 0,0.90332 q -2.07519,-0.13428 -3.38134,-0.13428 -1.3794,0 -3.39356,0.13428 -1.48926,-3.43018 -3.8208,-7.84912 -0.6958,-0.0244 -1.45264,-0.0977 l 0.0366,5.07812 q 0.0244,0.93995 0.15869,1.17188 0.13427,0.21973 0.37841,0.31738 0.1709,0.0854 2.18506,0.47608 l 0,0.90332 q -2.84423,-0.13428 -4.56543,-0.13428 -1.69677,0 -4.5166,0.13428 l 0,-0.90332 q 2.0752,-0.37842 2.33155,-0.58594 0.26855,-0.20752 0.34179,-0.81787 0.0366,-0.32959 0.0488,-6.26221 l -0.0122,-3.63769 q 0,-2.56348 -0.0977,-3.08838 -0.0733,-0.37842 -0.3418,-0.56153 -0.25635,-0.19531 -1.72119,-0.45166 l -0.54932,-0.10986 z m 6.33545,7.09229 q 0.61035,0.0244 0.90332,0.0244 1.70899,0 2.51465,-0.80566 0.81787,-0.81788 0.81787,-2.47803 0,-1.5625 -0.76904,-2.38037 -0.76904,-0.83008 -2.0874,-0.83008 -0.53711,0 -1.39161,0.0854 l 0.0122,6.38428 z"
         style="font-weight:bold;font-size:25px;font-family:'Calisto MT';letter-spacing:9.21850014px"
         id="path3368" />
      <path
         d="m 193.30136,441.40488 0,-0.90332 q 2.85645,0.13428 4.57764,0.13428 1.72119,0 4.52881,-0.13428 l 0,0.90332 q -1.79444,0.29297 -2.2461,0.50049 -0.29297,0.12207 -0.39062,0.354 -0.12207,0.30518 -0.12207,1.61133 l 0,6.25 q 0,2.41699 0.26855,3.28369 0.3418,1.14746 1.31836,1.84326 0.97656,0.6958 2.75879,0.6958 1.96533,0 2.96631,-0.79345 1.00098,-0.80567 1.28174,-2.11182 0.29297,-1.30615 0.29297,-4.47998 0,-0.73242 -0.0977,-4.12598 -0.061,-1.87988 -0.18311,-2.20947 -0.0732,-0.19531 -0.25634,-0.30517 -0.23194,-0.1587 -1.58692,-0.41504 -0.15869,-0.0366 -0.47607,-0.0977 l 0,-0.90332 q 2.57568,0.13428 3.6499,0.13428 1.26953,0 3.32031,-0.13428 l 0,0.90332 q -1.85547,0.3418 -2.14843,0.54932 -0.29297,0.20752 -0.35401,0.61035 -0.10986,0.68359 -0.14648,6.21338 -0.0244,3.17383 -0.15869,4.16259 -0.20752,1.35499 -0.67139,2.20948 -0.45166,0.84228 -1.34277,1.5625 -0.87891,0.72021 -1.95313,1.0498 -1.41601,0.42725 -3.02734,0.42725 -2.72217,0 -4.32129,-0.78125 -1.59912,-0.79346 -2.23389,-2.06299 -0.62256,-1.28174 -0.62256,-3.73535 l 0,-7.54395 q 0,-1.45263 -0.14648,-1.83105 -0.10986,-0.24414 -0.39063,-0.36621 -0.26855,-0.12207 -2.0874,-0.46387 z"
         style="font-weight:bold;font-size:25px;font-family:'Calisto MT';letter-spacing:9.21850014px"
         id="path3370" />
      <path
         d="m 222.33186,441.40488 0,-0.90332 q 2.18506,0.13428 3.60108,0.13428 1.51367,0 3.28369,-0.13428 0.51269,1.3916 1.34277,3.2959 2.27051,5.12695 4.01612,8.70361 l 3.07617,-6.64062 q 0.73242,-1.62354 1.15967,-2.66114 0.43945,-1.0498 1.0498,-2.69775 2.31934,0.13428 3.36914,0.13428 0.90332,0 3.27149,-0.13428 l 0,0.90332 q -0.36622,0.0732 -0.54932,0.0977 -1.57471,0.26855 -1.83106,0.48828 -0.24414,0.21972 -0.31738,0.91553 -0.061,0.68359 -0.061,5.52978 0,6.15234 0.0122,6.4209 0.0366,0.96435 0.13428,1.18408 0.10986,0.21973 0.26856,0.31738 0.42724,0.24414 1.79443,0.45166 l 0.54932,0.10987 0,0.90332 q -2.95411,-0.13428 -4.5044,-0.13428 -1.59912,0 -4.72412,0.13428 l 0,-0.90332 q 1.92871,-0.35401 2.16064,-0.45166 0.24414,-0.10987 0.36622,-0.28076 0.12207,-0.1709 0.15869,-0.46387 0.0488,-0.29297 0.0488,-2.50244 0.0244,-4.79737 0.0244,-7.49512 0,-0.25635 -0.0122,-1.59912 -0.67139,1.3916 -4.90722,10.83984 l -1.23292,2.72217 -0.93994,0 q -1.37939,-3.11279 -6.21338,-13.64746 -0.0244,1.59912 -0.0244,2.70996 0,6.09131 0.10986,8.05664 0.061,1.12305 0.12207,1.25732 0.0855,0.23194 0.36622,0.37842 0.28076,0.14649 1.66015,0.37842 0.1709,0.0366 0.50049,0.0977 l 0,0.90332 q -1.7334,-0.13428 -3.34473,-0.13428 -1.62353,0 -3.69873,0.13428 l 0,-0.90332 q 1.58692,-0.28076 1.92871,-0.40284 0.3418,-0.12207 0.5127,-0.40283 0.1709,-0.28076 0.1709,-1.0498 l 0.14648,-7.76367 q 0.0366,-2.03858 0.0366,-3.02735 0,-1.52588 -0.15869,-2.00195 -0.0977,-0.29297 -0.37842,-0.43945 -0.26855,-0.14649 -1.77002,-0.3418 -0.19531,-0.0244 -0.57373,-0.0854 z"
         style="font-weight:bold;font-size:25px;font-family:'Calisto MT';letter-spacing:9.21850014px"
         id="path3372" />
      <path
         d="m 256.06209,441.40488 0,-0.90332 q 3.38135,0.13428 5.29785,0.13428 l 4.10156,-0.061 q 1.83106,0 2.89307,0.39063 1.06201,0.39062 1.72119,1.42822 0.65918,1.0376 0.65918,2.51465 0,2.36816 -1.61133,3.90625 -1.61133,1.52588 -4.40674,1.52588 -0.8667,0 -2.16064,-0.20752 0.0244,3.27148 0.0244,3.78418 l -0.0122,0.89111 q 0,1.17188 0.19531,1.40381 0.31738,0.39062 2.2583,0.62256 0.21973,0.0244 0.65918,0.0855 l 0,0.90332 q -3.49121,-0.13428 -5.04151,-0.13428 -1.79443,0 -4.57763,0.13428 l 0,-0.90332 q 2.14844,-0.37842 2.39258,-0.59815 0.25634,-0.21972 0.30517,-0.81787 0.0488,-0.59814 0.0854,-6.61621 l -0.0122,-3.69873 q -0.0122,-2.23389 -0.0854,-2.62451 -0.0732,-0.39063 -0.31738,-0.56153 -0.31738,-0.21972 -1.83105,-0.50048 -0.18311,-0.0244 -0.53711,-0.0977 z m 6.49414,7.34863 q 0.74463,0.0732 1.28174,0.0732 1.41601,0 2.20947,-0.8667 0.79346,-0.8667 0.79346,-2.68555 0,-1.61133 -0.78125,-2.44141 -0.78125,-0.83008 -2.22168,-0.83008 -0.54932,0 -1.28174,0.12208 l 0,6.62841 z"
         style="letter-spacing:8.75899982px"
         id="path3374" />
      <path
         d="m 296.49268,449.43711 q 0,-4.18701 2.56347,-6.73828 2.57569,-2.56348 6.89697,-2.56348 4.07715,0 6.39649,2.30713 2.33154,2.29492 2.33154,6.15234 0,2.45361 -0.91553,4.46778 -0.72021,1.59912 -1.86767,2.69775 -1.13525,1.09863 -2.33154,1.63574 -1.78223,0.79346 -4.29688,0.79346 -4.1748,0 -6.48193,-2.30713 -2.29492,-2.30713 -2.29492,-6.44531 z m 4.22363,-0.65918 q 0,4.44336 1.61133,6.53076 1.19629,1.5625 3.43017,1.5625 1.53809,0 2.58789,-0.79346 1.06201,-0.79346 1.58692,-2.53906 0.5249,-1.75781 0.5249,-4.07715 0,-1.77002 -0.31738,-3.39355 -0.31739,-1.62354 -0.8667,-2.53907 -0.54932,-0.91552 -1.47705,-1.47705 -0.91553,-0.56152 -2.22168,-0.56152 -1.45264,0 -2.58789,0.81787 -1.13526,0.80566 -1.70899,2.55127 -0.56152,1.7334 -0.56152,3.91846 z"
         style="letter-spacing:9.02390003px"
         id="path3376" />
      <path
         d="m 324.96237,441.40488 0,-0.90332 q 4.12598,0.13428 4.87061,0.13428 0.79345,0 2.29492,-0.0366 1.50146,-0.0488 2.20947,-0.0488 1.81885,0 2.83203,0.46387 1.01319,0.46386 1.62354,1.47705 0.62256,1.01318 0.62256,2.2583 0,1.06201 -0.43946,2.05078 -0.43945,0.97656 -1.17187,1.66015 -0.47608,0.45166 -1.52588,0.97657 0.83008,1.42822 2.4292,4.04052 1.17187,1.91651 1.52588,2.29493 0.36621,0.37841 0.78125,0.58593 0.63476,0.29297 2.31933,0.56153 l 0,0.90332 q -2.07519,-0.13428 -3.38134,-0.13428 -1.3794,0 -3.39356,0.13428 -1.48926,-3.43018 -3.8208,-7.84912 -0.6958,-0.0244 -1.45264,-0.0977 l 0.0366,5.07812 q 0.0244,0.93995 0.15869,1.17188 0.13427,0.21973 0.37841,0.31738 0.1709,0.0854 2.18506,0.47608 l 0,0.90332 q -2.84424,-0.13428 -4.56543,-0.13428 -1.69677,0 -4.5166,0.13428 l 0,-0.90332 q 2.0752,-0.37842 2.33154,-0.58594 0.26856,-0.20752 0.3418,-0.81787 0.0366,-0.32959 0.0488,-6.26221 l -0.0122,-3.63769 q 0,-2.56348 -0.0976,-3.08838 -0.0732,-0.37842 -0.3418,-0.56153 -0.25635,-0.19531 -1.72119,-0.45166 l -0.54932,-0.10986 z m 6.33545,7.09229 q 0.61035,0.0244 0.90332,0.0244 1.70899,0 2.51465,-0.80566 0.81787,-0.81788 0.81787,-2.47803 0,-1.5625 -0.76904,-2.38037 -0.76905,-0.83008 -2.0874,-0.83008 -0.53711,0 -1.39161,0.0854 l 0.0122,6.38428 z"
         style="font-weight:bold;font-size:25px;font-family:'Calisto MT';letter-spacing:9.21850014px"
         id="path3378" />
      <path
         d="m 372.16916,448.82676 0,0.89111 q -1.67236,0.30517 -2.12402,0.5249 -0.21973,0.10986 -0.32959,0.41504 -0.10987,0.30518 -0.10987,1.87988 0,2.51465 0.0732,4.44336 -0.83007,0.14649 -1.81884,0.35401 -2.58789,0.56152 -3.73535,0.708 -1.13526,0.14649 -2.44141,0.14649 -3.03955,0 -4.80957,-0.75684 -2.20947,-0.96435 -3.38135,-2.97851 -1.17187,-2.01416 -1.17187,-4.79737 0,-4.94384 3.6499,-7.61718 2.6123,-1.9043 6.89697,-1.9043 2.86865,0 6.46973,0.83008 -0.0244,0.72021 -0.0244,1.15967 0,1.42822 0.12207,4.05273 l -1.24511,0 q -0.5127,-2.02637 -1.0376,-2.80762 -0.5127,-0.79345 -1.61133,-1.25732 -1.08642,-0.47608 -2.66113,-0.47608 -2.06299,0 -3.45459,0.84229 -1.3794,0.84228 -2.14844,2.6123 -0.75684,1.75782 -0.75684,4.05274 0,3.66211 1.7212,5.54199 1.73339,1.87988 4.55322,1.87988 1.41601,0 3.06396,-0.63476 l 0,-3.75977 q 0,-1.23291 -0.12207,-1.58691 -0.0854,-0.21973 -0.34179,-0.35401 -0.24414,-0.13427 -1.5625,-0.40283 -0.14649,-0.0366 -0.45166,-0.10986 l 0,-0.89111 q 2.80761,0.13427 4.22363,0.13427 1.0376,0 4.56543,-0.13427 z"
         style="font-weight:bold;font-size:25px;font-family:'Calisto MT';letter-spacing:9.21850014px"
         id="path3380" />
      <path
         d="m 392.66696,457.82334 0,-0.90332 q 1.47705,-0.26856 1.70899,-0.43946 0.23193,-0.17089 0.23193,-0.46386 0,-0.1709 -0.0732,-0.39063 -0.19532,-0.51269 -1.26953,-3.07617 -1.7212,-0.0366 -2.86866,-0.0366 -0.93994,0 -3.1372,0.0366 -1.35498,3.19824 -1.35498,3.50342 0,0.29297 0.19531,0.43945 0.19531,0.13428 1.7334,0.42725 l 0,0.90332 q -1.53809,-0.13428 -2.9419,-0.13428 -1.51367,0 -3.07617,0.13428 l 0,-0.90332 q 1.09863,-0.23194 1.51367,-0.52491 0.28076,-0.19531 0.5127,-0.58593 0.47607,-0.76905 2.84424,-5.95703 1.50146,-3.2837 4.28466,-9.7168 l 0.98877,0 q 1.13526,2.86865 4.69971,10.70557 1.97754,4.35791 2.36816,4.95605 0.26856,0.41504 0.53711,0.58594 0.26856,0.1709 1.69678,0.53711 l 0,0.90332 q -2.16064,-0.13428 -4.01611,-0.13428 -1.83106,0 -4.57764,0.13428 z m -2.34375,-12.42676 -2.49023,5.74951 2.41699,0.0122 q 0.8667,0 2.49023,-0.0122 l -2.41699,-5.74951 z"
         style="font-weight:bold;font-size:25px;font-family:'Calisto MT';letter-spacing:9.21850014px"
         id="path3382" />
      <path
         d="m 410.60129,441.40488 0,-0.90332 q 1.67236,0.13428 3.11279,0.13428 1.45264,0 3.41797,-0.13428 1.48926,2.00195 8.95996,11.07178 l -0.0488,-6.64063 q -0.061,-2.4292 -0.19531,-2.69775 -0.12207,-0.28076 -0.41504,-0.42725 -0.29297,-0.15869 -2.06299,-0.40283 l 0,-0.90332 q 1.96533,0.13428 3.43018,0.13428 1.41601,0 3.61328,-0.13428 l 0,0.90332 q -0.37842,0.0732 -0.56152,0.0977 -1.44043,0.21972 -1.7212,0.48828 -0.28076,0.25635 -0.32959,1.07422 -0.12207,1.70898 -0.12207,7.03125 0,3.41797 0.13428,7.8125 -0.57373,0.17089 -1.13525,0.40283 l -4.62647,-5.83496 -7.05566,-8.58155 0.0366,5.79834 0.0977,5.63965 q 0.0366,0.63477 0.12207,0.80567 0.0855,0.15869 0.24414,0.25634 0.26855,0.1587 1.7334,0.42725 0.17089,0.0244 0.51269,0.0977 l 0,0.90332 q -2.09961,-0.13428 -3.36914,-0.13428 -1.08643,0 -3.68652,0.13428 l 0,-0.90332 q 0.37842,-0.0733 0.57373,-0.10987 1.40381,-0.21972 1.67236,-0.42724 0.1709,-0.13428 0.24414,-0.37842 0.0732,-0.25635 0.15869,-3.6377 0.13428,-4.89502 0.13428,-8.39843 0,-1.17188 -0.13428,-1.50147 -0.12207,-0.32959 -0.45166,-0.51269 -0.32959,-0.18311 -1.67236,-0.42725 -0.20752,-0.0366 -0.61035,-0.12207 z"
         style="font-weight:bold;font-size:25px;font-family:'Calisto MT';letter-spacing:9.21850014px"
         id="path3384" />
      <path
         d="m 449.20212,440.50156 0,0.90332 -0.45166,0.061 q -1.62354,0.19531 -1.95313,0.48828 -0.31738,0.29297 -0.31738,1.13525 l 0,0.43945 -0.0244,4.08936 0.0122,4.67529 0.0122,2.38037 q 0,1.04981 0.0977,1.31836 0.10986,0.26856 0.36621,0.40283 0.43945,0.23194 1.80664,0.45166 0.14648,0.0244 0.45166,0.0733 l 0,0.90332 q -2.50244,-0.13428 -4.40674,-0.13428 -1.80664,0 -4.78516,0.13428 l 0,-0.90332 q 1.9043,-0.35401 2.08741,-0.42725 0.28076,-0.10986 0.42724,-0.31738 0.18311,-0.28076 0.19531,-1.14746 0.0244,-2.02637 0.0244,-6.89698 l -0.0366,-4.44335 0,-0.36622 q 0,-0.97656 -0.28076,-1.25732 -0.28077,-0.28076 -1.89209,-0.54932 -0.18311,-0.0366 -0.52491,-0.10986 l 0,-0.90332 q 3.13721,0.13428 4.69971,0.13428 1.67236,0 4.49219,-0.13428 z"
         style="font-weight:bold;font-size:25px;font-family:'Calisto MT';letter-spacing:9.21850014px"
         id="path3386" />
      <path
         d="m 461.14276,445.35996 -1.01318,0 q 0.24414,-2.22168 0.36621,-4.8584 3.63769,0.13428 6.53076,0.13428 2.80762,0 6.84814,-0.13428 l 0,1.02539 q -1.2207,1.67236 -4.23584,6.04248 -4.77294,6.92139 -5.82275,8.6792 l 5.3833,0 q 1.47705,0 1.92871,-0.1709 0.46387,-0.1831 0.87891,-0.76904 0.61035,-0.8667 1.09863,-2.44141 l 1.09863,0 -0.56152,2.74658 q -0.12207,0.64698 -0.3418,2.20948 l -7.15332,-0.13428 q -1.85546,0 -7.04345,0.13428 l 0,-0.97657 6.87256,-9.99755 3.11279,-4.69971 -4.96826,0 q -1.00098,0 -1.3794,0.13428 -0.37842,0.12207 -0.56152,0.41504 -0.43945,0.64697 -0.76904,1.80664 -0.0854,0.29296 -0.26856,0.85449 z"
         style="font-weight:bold;font-size:25px;font-family:'Calisto MT';letter-spacing:9.21850014px"
         id="path3388" />
      <path
         d="m 494.82416,457.82334 0,-0.90332 q 1.47705,-0.26856 1.70898,-0.43946 0.23194,-0.17089 0.23194,-0.46386 0,-0.1709 -0.0733,-0.39063 -0.19531,-0.51269 -1.26953,-3.07617 -1.72119,-0.0366 -2.86865,-0.0366 -0.93994,0 -3.13721,0.0366 -1.35498,3.19824 -1.35498,3.50342 0,0.29297 0.19531,0.43945 0.19532,0.13428 1.7334,0.42725 l 0,0.90332 q -1.53808,-0.13428 -2.94189,-0.13428 -1.51367,0 -3.07617,0.13428 l 0,-0.90332 q 1.09863,-0.23194 1.51367,-0.52491 0.28076,-0.19531 0.51269,-0.58593 0.47608,-0.76905 2.84424,-5.95703 1.50147,-3.2837 4.28467,-9.7168 l 0.98877,0 q 1.13525,2.86865 4.69971,10.70557 1.97754,4.35791 2.36816,4.95605 0.26856,0.41504 0.53711,0.58594 0.26856,0.1709 1.69678,0.53711 l 0,0.90332 q -2.16065,-0.13428 -4.01612,-0.13428 -1.83105,0 -4.57763,0.13428 z m -2.34375,-12.42676 -2.49024,5.74951 2.417,0.0122 q 0.86669,0 2.49023,-0.0122 l -2.41699,-5.74951 z"
         style="font-weight:bold;font-size:25px;font-family:'Calisto MT';letter-spacing:9.21850014px"
         id="path3390" />
      <path
         d="m 527.69989,445.64072 -1.13525,0 q -0.84229,-2.57568 -1.0376,-2.91748 -0.18311,-0.3418 -0.5249,-0.47607 -0.3418,-0.14649 -2.17286,-0.14649 l -1.18408,0 0,11.40137 q 0,2.12402 0.14649,2.56347 0.0732,0.23194 0.354,0.37842 0.29297,0.13428 2.22168,0.47608 l 0,0.90332 q -3.72314,-0.13428 -4.78516,-0.13428 -1.44043,0 -4.40673,0.13428 l 0,-0.90332 q 1.95312,-0.3418 2.31933,-0.53711 0.24414,-0.13428 0.32959,-0.43946 0.0977,-0.31738 0.0977,-2.56347 l 0,-11.2793 -2.05078,0 q -1.0376,0 -1.3794,0.1709 -0.32959,0.1709 -0.54931,0.62256 -0.32959,0.68359 -0.92774,2.74658 l -1.11084,0 q 0.20752,-1.79443 0.25635,-2.47803 0.0488,-0.68359 0.10986,-2.66113 4.83399,0.13428 9.44824,0.10986 3.90625,-0.0366 5.61524,-0.10986 0.0122,2.35596 0.36621,5.13916 z"
         style="font-weight:bold;font-size:25px;font-family:'Calisto MT';letter-spacing:9.21850014px"
         id="path3392" />
      <path
         d="m 546.86713,440.50156 0,0.90332 -0.45166,0.061 q -1.62354,0.19531 -1.95313,0.48828 -0.31738,0.29297 -0.31738,1.13525 l 0,0.43945 -0.0244,4.08936 0.0122,4.67529 0.0122,2.38037 q 0,1.04981 0.0977,1.31836 0.10987,0.26856 0.36622,0.40283 0.43945,0.23194 1.80664,0.45166 0.14648,0.0244 0.45166,0.0733 l 0,0.90332 q -2.50244,-0.13428 -4.40674,-0.13428 -1.80664,0 -4.78516,0.13428 l 0,-0.90332 q 1.9043,-0.35401 2.0874,-0.42725 0.28077,-0.10986 0.42725,-0.31738 0.18311,-0.28076 0.19531,-1.14746 0.0244,-2.02637 0.0244,-6.89698 l -0.0366,-4.44335 0,-0.36622 q 0,-0.97656 -0.28077,-1.25732 -0.28076,-0.28076 -1.89209,-0.54932 -0.1831,-0.0366 -0.5249,-0.10986 l 0,-0.90332 q 3.13721,0.13428 4.69971,0.13428 1.67236,0 4.49219,-0.13428 z"
         style="font-weight:bold;font-size:25px;font-family:'Calisto MT';letter-spacing:9.21850014px"
         id="path3394" />
      <path
         d="m 557.33075,449.43711 q 0,-4.18701 2.56348,-6.73828 2.57568,-2.56348 6.89697,-2.56348 4.07715,0 6.39648,2.30713 2.33155,2.29492 2.33155,6.15234 0,2.45361 -0.91553,4.46778 -0.72022,1.59912 -1.86768,2.69775 -1.13525,1.09863 -2.33154,1.63574 -1.78223,0.79346 -4.29688,0.79346 -4.1748,0 -6.48193,-2.30713 -2.29492,-2.30713 -2.29492,-6.44531 z m 4.22363,-0.65918 q 0,4.44336 1.61133,6.53076 1.19629,1.5625 3.43018,1.5625 1.53808,0 2.58789,-0.79346 1.06201,-0.79346 1.58691,-2.53906 0.5249,-1.75781 0.5249,-4.07715 0,-1.77002 -0.31738,-3.39355 -0.31738,-1.62354 -0.8667,-2.53907 -0.54932,-0.91552 -1.47705,-1.47705 -0.91553,-0.56152 -2.22168,-0.56152 -1.45264,0 -2.58789,0.81787 -1.13525,0.80566 -1.70898,2.55127 -0.56153,1.7334 -0.56153,3.91846 z"
         style="font-weight:bold;font-size:25px;font-family:'Calisto MT';letter-spacing:9.21850014px"
         id="path3396" />
      <path
         d="m 585.92181,441.40488 0,-0.90332 q 1.67237,0.13428 3.1128,0.13428 1.45263,0 3.41797,-0.13428 1.48925,2.00195 8.95996,11.07178 l -0.0488,-6.64063 q -0.061,-2.4292 -0.19531,-2.69775 -0.12207,-0.28076 -0.41504,-0.42725 -0.29297,-0.15869 -2.06299,-0.40283 l 0,-0.90332 q 1.96533,0.13428 3.43017,0.13428 1.41602,0 3.61329,-0.13428 l 0,0.90332 q -0.37842,0.0732 -0.56153,0.0977 -1.44043,0.21972 -1.72119,0.48828 -0.28076,0.25635 -0.32959,1.07422 -0.12207,1.70898 -0.12207,7.03125 0,3.41797 0.13428,7.8125 -0.57373,0.17089 -1.13526,0.40283 l -4.62646,-5.83496 -7.05566,-8.58155 0.0366,5.79834 0.0976,5.63965 q 0.0366,0.63477 0.12207,0.80567 0.0855,0.15869 0.24414,0.25634 0.26856,0.1587 1.7334,0.42725 0.1709,0.0244 0.5127,0.0977 l 0,0.90332 q -2.09961,-0.13428 -3.36914,-0.13428 -1.08643,0 -3.68653,0.13428 l 0,-0.90332 q 0.37842,-0.0733 0.57373,-0.10987 1.40381,-0.21972 1.67237,-0.42724 0.1709,-0.13428 0.24414,-0.37842 0.0732,-0.25635 0.15869,-3.6377 0.13428,-4.89502 0.13428,-8.39843 0,-1.17188 -0.13428,-1.50147 -0.12207,-0.32959 -0.45166,-0.51269 -0.32959,-0.18311 -1.67236,-0.42725 -0.20752,-0.0366 -0.61036,-0.12207 z"
         style="font-weight:bold;font-size:25px;font-family:'Calisto MT';letter-spacing:9.21850014px"
         id="path3398" />
    </g>
  </g>
</svg>
